<svg width="280" height="280" viewBox="0 0 280 280" fill="none" xmlns="http://www.w3.org/2000/svg">
    <path fill-rule="evenodd" clip-rule="evenodd"
        d="M249.977 250.359C263.16 237.261 271.693 220.865 274.718 202.844C278.194 182.157 280 161.019 280 140.017C280 119.014 278.284 98.4183 274.853 78.0029C268.623 40.65 239.323 11.382 201.986 5.14905C181.535 1.76147 160.677 0 140 0C119.323 0 97.9232 1.76147 77.2461 5.28455C59.5485 8.2655 43.386 16.5762 30.474 29.2681L30.0226 29.6746C16.8397 42.7728 8.30701 59.1685 5.28217 77.1899C1.80588 97.8762 0 119.014 0 140.017C0 161.019 1.71558 181.615 5.14673 202.031C11.377 239.384 40.6772 268.652 78.0135 274.885C119.187 281.75 161.716 281.705 202.709 274.749C220.406 271.768 236.569 263.458 249.481 250.72L249.932 250.314L249.977 250.359ZM231.016 231.028L230.655 231.344C221.716 240.197 210.519 245.978 198.239 248.056C179.052 251.308 159.458 252.934 140 252.934C120.542 252.934 101.445 251.353 82.4831 248.191C56.5688 243.855 36.2528 223.53 31.9187 197.604C28.7585 178.634 27.1332 159.258 27.1332 140.017C27.1332 120.776 28.7585 100.902 32.009 81.7065C34.0858 69.2858 40 57.994 49.0294 49.0059L49.3002 48.7349C58.2393 39.837 69.4808 34.0557 81.7607 31.978C119.865 25.5192 159.278 25.474 197.517 31.8425C223.431 36.1786 243.747 56.5035 248.081 82.4293C251.242 101.399 252.867 120.776 252.867 140.017C252.867 159.258 251.242 179.086 247.991 198.327C245.914 210.748 240 222.04 230.971 231.028H231.016ZM123.572 160.45C130.693 160.449 137.523 157.622 142.561 152.59L175.948 119.18C180.935 114.377 184.047 107.954 184.726 101.064C185.057 97.0178 184.505 92.948 183.107 89.1367C181.708 85.3256 179.498 81.864 176.628 78.9923C173.759 76.1206 170.299 73.9076 166.489 72.5065C162.679 71.1053 158.609 70.5499 154.563 70.8784C147.677 71.5278 141.247 74.6079 136.425 79.5669L103.016 113.044C100.517 115.534 98.5361 118.493 97.1871 121.753C95.8381 125.012 95.1479 128.506 95.1563 132.033V151.492C95.1563 153.868 96.1 156.146 97.7798 157.826C99.4595 159.506 101.738 160.45 104.113 160.45H123.572ZM113.07 132.033C113.069 130.857 113.3 129.691 113.75 128.604C114.199 127.517 114.859 126.528 115.69 125.696L149.659 91.7262C150.571 90.7069 151.681 89.8845 152.921 89.309C154.162 88.7334 155.506 88.417 156.873 88.3789C158.24 88.3409 159.6 88.5822 160.871 89.0878C162.141 89.5935 163.295 90.353 164.262 91.3199C165.229 92.2869 165.989 93.4408 166.494 94.7113C167 95.9818 167.241 97.3422 167.203 98.709C167.165 100.076 166.849 101.421 166.273 102.661C165.698 103.901 164.875 105.011 163.856 105.923L129.887 139.915C128.211 141.589 125.941 142.531 123.572 142.535H113.07V132.033ZM172.261 189.629C175.357 193.115 176.183 193.73 178.04 193.73C180.104 193.73 180.724 193.32 184.026 189.629C184.026 189.424 184.232 189.424 184.232 189.424C187.741 185.732 193.521 185.527 197.236 189.014C200.951 192.5 201.158 198.242 197.649 201.934L197.501 202.098C193.984 206.006 188.42 212.188 178.04 212.188C167.711 212.188 162.35 206.263 158.642 202.166L158.432 201.934C155.336 198.447 154.51 197.832 152.653 197.832C150.795 197.832 149.969 198.242 146.873 201.934L146.726 202.098C143.208 206.006 137.645 212.188 127.265 212.188C116.935 212.188 111.575 206.263 107.867 202.166L107.657 201.934C104.561 198.447 103.735 197.832 101.877 197.832C100.02 197.832 99.1941 198.242 96.098 201.934L95.6852 202.344L95.4788 202.549C91.7635 206.035 85.9843 206.035 82.4754 202.549C78.9665 199.062 78.9665 193.115 82.4754 189.629C85.9843 185.322 91.3507 179.375 101.877 179.375C112.207 179.375 117.568 185.299 121.276 189.397L121.486 189.629C124.582 193.115 125.407 193.73 127.265 193.73C129.123 193.73 129.948 193.32 133.044 189.629L133.192 189.465C136.709 185.557 142.273 179.375 152.653 179.375C162.982 179.375 168.343 185.299 172.051 189.397L172.261 189.629Z"
        fill="#6D28D9" />
</svg>